<svg width="97" height="137" viewBox="0 0 97 137" fill="none" xmlns="http://www.w3.org/2000/svg">
<path d="M12.8867 2C12.8867 2 23.8474 20.3954 25.6455 28.9388" stroke="#FFEA86" stroke-width="4" stroke-miterlimit="10" stroke-linecap="round"/>
<path d="M2 25.7534C6.11679 27.4749 10.3469 28.9104 14.6603 30.0498C18.614 31.1132 22.6278 31.9377 26.6801 32.519" stroke="#FFEA86" stroke-width="4" stroke-miterlimit="10" stroke-linecap="round"/>
<path d="M27.7144 31.877C31.7443 27.9353 35.135 23.3865 37.7638 18.3952C40.2849 13.5943 42.0149 8.4163 42.887 3.06165" stroke="#FFEA86" stroke-width="4" stroke-miterlimit="10" stroke-linecap="round"/>
<path d="M26.3354 33.8771C31.6713 35.6861 37.2553 36.6524 42.8874 36.7413C48.2969 36.7773 53.6772 35.9436 58.8235 34.2722" stroke="#FFEA86" stroke-width="4" stroke-miterlimit="10" stroke-linecap="round"/>
<path d="M26.6804 33.5066C26.6804 33.5066 21.9759 52.9884 16.1138 59.8034" stroke="#FFEA86" stroke-width="4" stroke-miterlimit="10" stroke-linecap="round"/>
<path d="M58.4291 97.2611C58.4291 97.2611 35.9904 109.311 29.7342 131.459C28.749 134.99 28.946 135.015 28.749 134.99C28.5519 134.965 33.8722 110.669 34.2416 84.7916C34.3921 71.9954 33.27 59.216 30.8919 46.6428" stroke="#FFEA86" stroke-width="4" stroke-miterlimit="10" stroke-linecap="round"/>
<path d="M94.4887 77.3842C77.6659 76.1249 58.0351 55.7789 54.6606 51.1368" stroke="#FFEA86" stroke-width="4" stroke-miterlimit="10" stroke-linecap="round"/>
</svg>
