<svg width="239" height="199" viewBox="0 0 239 199" fill="none" xmlns="http://www.w3.org/2000/svg">
<path d="M130.247 55.417C131.476 43.8556 123.036 33.4896 111.395 32.2638C99.7534 31.038 89.3198 39.4167 88.0905 50.978C86.8613 62.5393 95.3018 72.9054 106.943 74.1312C118.584 75.3569 129.018 66.9783 130.247 55.417Z" stroke="#B7E576" stroke-width="4" stroke-miterlimit="10"/>
<path d="M110.047 103.016L110.583 74.0604" stroke="#B7E576" stroke-width="4" stroke-miterlimit="10"/>
<path d="M110.454 160.585L110.711 134.314" stroke="#B7E576" stroke-width="4" stroke-miterlimit="10"/>
<path d="M65.686 89.4648C70.8244 93.0442 84.2485 102.888 109.577 103.016C130.708 103.122 145.824 97.8381 155.48 91.361" stroke="#B7E576" stroke-width="4" stroke-miterlimit="10" stroke-linecap="round"/>
<path d="M64.5513 146.374C69.6897 149.953 85.3618 159.157 110.69 159.37C131.822 159.37 147.28 155.493 156.935 149.016" stroke="#B7E576" stroke-width="4" stroke-miterlimit="10" stroke-linecap="round"/>
<path d="M77.2046 98.2855L78.425 122.852C78.425 122.852 82.921 134.783 111.503 135.486C135.183 136.061 144.646 127.198 148.971 123.64" stroke="#B7E576" stroke-width="4" stroke-miterlimit="10" stroke-linecap="round"/>
<path d="M158.37 19.6443C159.441 19.6443 126.255 -10.0139 84.634 7.84069C67.6987 15.1061 46.5242 35.3896 43.955 59.2099C41.4714 82.2846 43.0129 105.125 42.6918 120.636C42.2636 141.793 48.601 160.414 58.4924 171.664C73.3295 188.581 89.28 195.634 107.05 196.678C127.904 197.892 141.092 193.183 154.431 182.829C164.719 174.545 172.659 163.735 177.468 151.466" stroke="#B7E576" stroke-width="4" stroke-miterlimit="10" stroke-linecap="round"/>
<path d="M165.928 26.6967C165.928 26.6967 175.455 42.5698 177.018 49.9417" stroke="#FFEA86" stroke-width="4" stroke-miterlimit="10" stroke-linecap="round"/>
<path d="M156.464 47.1933C160.043 48.6788 163.72 49.9174 167.469 50.9006C170.906 51.8182 174.395 52.5297 177.917 53.0312" stroke="#FFEA86" stroke-width="4" stroke-miterlimit="10" stroke-linecap="round"/>
<path d="M178.816 52.4772C182.319 49.076 185.267 45.1509 187.552 40.844C189.743 36.7013 191.247 32.2333 192.005 27.6129" stroke="#FFEA86" stroke-width="4" stroke-miterlimit="10" stroke-linecap="round"/>
<path d="M177.618 54.203C182.256 55.764 187.11 56.5978 192.005 56.6745C196.707 56.7055 201.384 55.9862 205.857 54.5439" stroke="#FFEA86" stroke-width="4" stroke-miterlimit="10" stroke-linecap="round"/>
<path d="M177.917 53.8834C177.917 53.8834 173.828 70.694 168.732 76.5745" stroke="#FFEA86" stroke-width="4" stroke-miterlimit="10" stroke-linecap="round"/>
<path d="M205.515 108.896C205.515 108.896 186.01 119.293 180.572 138.405C179.716 141.452 179.887 141.473 179.716 141.452C179.544 141.431 184.169 120.465 184.49 98.1364C184.621 87.0947 183.645 76.0675 181.578 65.2183" stroke="#FFEA86" stroke-width="4" stroke-miterlimit="10" stroke-linecap="round"/>
<path d="M236.859 91.7445C222.236 90.6579 205.172 73.1016 202.239 69.0961" stroke="#FFEA86" stroke-width="4" stroke-miterlimit="10" stroke-linecap="round"/>
<path d="M2.14101 19.4313C2.1198 16.4771 2.9807 13.5831 4.61455 11.1165C6.2484 8.64987 8.58157 6.72166 11.3181 5.57648C14.0547 4.43129 17.0714 4.12074 19.9856 4.68412C22.8999 5.24751 25.5803 6.6595 27.687 8.741C29.7937 10.8225 31.2317 13.4797 31.8187 16.3757C32.4057 19.2717 32.1153 22.2759 30.9842 25.0073C29.853 27.7388 27.9322 30.0744 25.4654 31.718C22.9985 33.3616 20.0967 34.239 17.128 34.2391C15.165 34.2531 13.2185 33.8805 11.4008 33.1426C9.58311 32.4048 7.93012 31.3162 6.53703 29.9398C5.14393 28.5634 4.03828 26.9262 3.2838 25.1227C2.52933 23.3191 2.14096 21.3849 2.14101 19.4313Z" stroke="#B7E576" stroke-width="4" stroke-miterlimit="10"/>
</svg>
