<svg xmlns="http://www.w3.org/2000/svg" viewBox="0 0 110.86 114.9"><defs><style>.cls-1{fill:#fff;}</style></defs><g id="Layer_2" data-name="Layer 2"><g id="Graphic_Elements" data-name="Graphic Elements"><path class="cls-1" d="M83.4,52.72C65.07,43.16,51.69,23.6,47.92,0,44.15,23.6,30.78,43.16,12.45,52.72,8.88,54.59,0,57.45,0,57.45s8.88,2.86,12.45,4.72c18.33,9.57,31.7,29.13,35.47,52.73C51.69,91.3,65.07,71.74,83.4,62.17c3.56-1.86,12.44-4.72,12.44-4.72S87,54.59,83.4,52.72Z"/><path class="cls-1" d="M107,16.52C101.21,13.52,97,7.39,95.84,0c-1.18,7.39-5.37,13.52-11.11,16.52A38,38,0,0,1,80.83,18a35.72,35.72,0,0,1,3.9,1.48c5.74,3,9.93,9.12,11.11,16.51C97,28.6,101.21,22.47,107,19.48a34.94,34.94,0,0,1,3.9-1.48A37.15,37.15,0,0,1,107,16.52Z"/></g></g></svg>